<?xml version="1.0" encoding="UTF-8" standalone="no"?>
<!DOCTYPE svg PUBLIC "-//W3C//DTD SVG 1.1//EN" "http://www.w3.org/Graphics/SVG/1.1/DTD/svg11.dtd">
<svg xmlns="http://www.w3.org/2000/svg" version="1.1" viewBox="0.00 0.00 1024.00 781.00">
<g stroke-width="2.00" fill="none" stroke-linecap="butt">
<path stroke="#76a3c4" vector-effect="non-scaling-stroke" d="
  M 438.80 120.98
  Q 435.57 121.88 434.78 122.21
  Q 431.12 123.70 423.21 127.52"
/>
<path stroke="#93b0c4" vector-effect="non-scaling-stroke" d="
  M 423.21 127.52
  C 416.56 130.57 409.18 133.39 403.28 136.68
  Q 394.42 141.62 387.66 147.15
  Q 379.83 153.54 367.83 164.27
  C 360.80 170.55 354.15 177.80 347.45 184.72"
/>
<path stroke="#76a3c4" vector-effect="non-scaling-stroke" d="
  M 347.45 184.72
  L 342.50 189.88
  Q 342.21 190.18 341.84 190.38
  Q 341.07 190.80 341.03 191.71
  Q 341.01 192.11 340.65 191.92
  Q 340.53 191.86 340.40 191.90
  Q 339.91 192.07 339.71 192.60
  Q 339.03 194.41 337.73 195.89
  Q 337.39 196.28 337.81 195.97
  Q 337.86 195.93 337.92 195.90
  Q 338.54 195.60 338.12 196.15
  Q 335.04 200.12 332.21 203.99
  Q 332.03 204.23 331.79 204.04
  L 331.46 203.78
  Q 331.41 203.74 331.44 203.69
  Q 332.29 202.33 333.12 201.24
  Q 333.20 201.13 333.11 201.00
  Q 333.07 200.95 333.03 201.00
  Q 332.05 202.53 330.70 203.79
  Q 330.54 203.94 330.75 203.87
  Q 330.79 203.85 330.84 203.87
  Q 331.05 203.97 331.06 204.20
  Q 331.13 205.63 329.99 206.50
  A 1.85 1.78 81.9 0 0 329.40 207.32
  Q 329.06 208.29 328.39 209.14
  Q 328.09 209.52 327.61 209.58
  Q 325.89 209.82 326.00 211.78
  A 1.30 1.27 -28.0 0 1 325.72 212.66
  Q 324.07 214.80 323.12 217.70"
/>
<path stroke="#93b0c4" vector-effect="non-scaling-stroke" d="
  M 323.12 217.70
  L 318.02 228.46"
/>
<path stroke="#76a3c4" vector-effect="non-scaling-stroke" d="
  M 318.02 228.46
  Q 313.27 234.86 311.76 237.75
  Q 309.37 242.33 305.99 252.05
  Q 304.46 256.44 305.93 254.25"
/>
<path stroke="#93b0c4" vector-effect="non-scaling-stroke" d="
  M 305.93 254.25
  Q 305.62 255.63 304.89 256.82
  Q 304.77 257.01 304.97 257.12
  L 305.20 257.24
  Q 305.23 257.26 305.24 257.22
  Q 306.13 255.05 307.26 252.78
  Q 307.34 252.62 307.51 252.71
  L 307.73 252.82
  Q 307.75 252.84 307.74 252.86
  Q 306.25 255.22 305.41 257.90
  Q 304.19 261.82 302.64 265.97
  Q 302.35 266.75 301.89 267.38
  C 300.98 268.59 301.07 270.27 300.39 271.68
  Q 299.06 274.47 298.36 277.53
  Q 298.26 277.97 297.92 278.28
  Q 297.32 278.84 297.16 279.76
  Q 296.53 283.42 295.29 287.79
  C 294.38 290.99 294.69 294.16 293.83 297.36
  C 292.99 300.50 293.12 303.75 292.59 306.90
  Q 290.82 317.42 290.83 332.15
  C 290.83 348.21 291.88 362.54 296.59 377.96
  Q 298.48 384.15 300.49 390.37
  Q 301.18 392.52 299.65 390.86
  Q 298.11 389.19 295.54 387.72
  Q 290.29 384.72 285.05 381.84"
/>
<path stroke="#76a3c4" vector-effect="non-scaling-stroke" d="
  M 285.05 381.84
  Q 283.43 380.56 281.90 380.10
  C 279.89 379.50 278.26 378.64 276.39 378.23
  C 274.28 377.77 271.98 376.83 270.21 376.37
  Q 255.65 372.58 240.43 373.13"
/>
<path stroke="#93b0c4" vector-effect="non-scaling-stroke" d="
  M 240.43 373.13
  Q 233.74 372.80 227.00 373.57
  Q 218.25 374.57 209.52 375.73
  Q 205.54 376.26 202.03 377.10
  Q 198.41 377.96 194.65 378.96
  Q 194.30 379.05 194.13 379.39
  A 0.74 0.72 -79.5 0 1 193.55 379.80
  Q 189.92 380.15 187.20 381.49
  Q 184.73 382.71 182.18 383.81
  Q 179.39 385.01 177.01 386.52
  Q 166.81 393.02 155.30 401.75
  Q 143.77 410.50 136.06 420.81
  C 135.77 421.20 135.78 421.58 135.55 421.95
  Q 132.47 426.87 128.69 431.08
  Q 125.96 434.10 123.91 437.19
  Q 121.72 440.47 119.57 443.80
  Q 119.26 444.28 119.09 444.83
  Q 118.95 445.24 118.63 445.53
  Q 116.84 447.17 116.00 449.60
  A 1.70 1.69 80.4 0 1 115.47 450.35
  Q 115.10 450.66 114.87 451.08
  Q 111.96 456.46 110.57 460.85
  Q 109.15 465.35 107.70 469.25
  Q 104.74 477.22 102.44 485.43
  Q 102.33 485.83 102.71 485.65
  Q 103.01 485.50 102.86 485.13
  Q 102.81 485.01 102.88 485.11
  Q 102.90 485.13 102.93 485.15
  Q 102.99 485.16 102.97 485.22
  Q 101.22 490.96 100.50 495.31
  Q 98.77 505.78 98.79 517.39
  Q 98.79 517.88 98.50 518.29
  Q 98.25 518.63 98.23 519.04
  Q 97.87 528.44 98.18 537.77"
/>
<path stroke="#76a3c4" vector-effect="non-scaling-stroke" d="
  M 98.18 537.77
  Q 98.75 547.92 100.10 554.97
  Q 103.83 574.46 113.20 593.59
  Q 128.76 625.35 156.23 646.33
  Q 162.21 650.90 172.97 656.97
  Q 173.40 657.21 173.93 657.11
  Q 174.27 657.04 174.47 657.33
  Q 175.25 658.44 176.62 658.35
  Q 176.74 658.34 176.63 658.37
  Q 176.50 658.41 176.38 658.48
  Q 176.21 658.58 176.36 658.71
  Q 179.72 661.60 184.36 663.69
  Q 193.12 667.64 200.92 670.96
  Q 203.51 672.06 206.39 672.09
  C 213.79 672.17 220.75 674.59 227.85 675.50
  Q 241.51 677.25 258.42 677.27
  Q 335.37 677.38 410.89 677.26
  Q 415.61 677.25 421.31 677.06
  A 0.94 0.94 0.0 0 0 422.22 676.12
  L 422.48 603.46"
/>
<path stroke="#93b0c4" vector-effect="non-scaling-stroke" d="
  M 422.48 603.46
  C 422.72 519.97 422.50 436.49 422.59 353.00
  Q 422.59 348.10 423.66 344.48
  C 424.85 340.39 429.55 336.76 433.90 336.21
  Q 436.66 335.85 439.49 335.86
  Q 494.27 335.98 572.06 335.69
  Q 584.93 335.64 589.91 334.78
  Q 597.94 333.40 606.26 330.74
  C 615.95 327.65 626.03 324.05 635.50 320.14
  Q 646.37 315.66 657.62 312.96
  Q 667.09 310.69 676.08 307.82
  Q 691.68 302.85 706.51 297.50
  Q 712.77 295.24 718.01 296.26"
/>
<path stroke="#76a3c4" vector-effect="non-scaling-stroke" d="
  M 718.01 296.26
  Q 725.51 299.00 729.94 305.03
  Q 734.73 311.55 735.73 318.39
  Q 736.01 320.31 736.08 332.62
  Q 736.25 364.24 736.19 397.00
  Q 736.19 399.08 736.23 400.97"
/>
<path stroke="#93b0c4" vector-effect="non-scaling-stroke" d="
  M 736.23 400.97
  Q 735.90 449.45 735.46 497.75
  Q 735.19 527.79 736.15 604.08"
/>
<path stroke="#76a3c4" vector-effect="non-scaling-stroke" d="
  M 736.15 604.08
  L 736.67 675.56
  A 2.19 2.19 0.0 0 0 738.87 677.73
  Q 767.94 677.54 795.44 677.62
  Q 817.97 677.68 841.39 674.15
  Q 847.16 673.28 852.49 671.66
  C 860.03 669.38 868.01 666.67 874.77 663.04
  C 886.51 656.73 899.29 648.52 907.95 640.20
  Q 915.92 632.55 923.63 625.37
  Q 929.31 620.09 933.33 613.73
  C 935.19 610.80 937.51 608.42 939.12 605.35
  C 940.33 603.02 941.92 600.89 943.21 598.54
  Q 943.45 598.12 943.29 597.67
  L 943.16 597.31
  A 0.83 0.81 57.5 0 1 943.33 596.50
  Q 944.29 595.46 944.39 593.99
  A 1.71 1.69 -26.2 0 1 944.69 593.13
  Q 945.61 591.77 945.97 590.12
  Q 946.30 588.59 946.91 587.17
  Q 949.11 582.10 951.27 576.84
  Q 951.72 575.76 951.83 574.56
  Q 951.94 573.38 952.44 572.26
  Q 953.13 570.70 953.66 569.03
  Q 955.40 563.55 956.49 558.44
  Q 958.79 547.60 959.78 535.62
  Q 961.35 516.61 958.61 497.75
  C 957.77 492.01 956.07 486.17 954.92 480.43
  Q 954.15 476.64 952.59 472.89
  Q 950.98 469.01 950.10 465.43
  Q 949.18 461.64 947.30 458.42
  C 946.62 457.26 946.43 456.23 946.02 455.01
  Q 945.59 453.76 944.80 452.54
  Q 943.11 449.92 941.65 447.11
  C 941.28 446.40 941.38 445.57 941.14 445.00
  Q 940.04 442.39 934.75 436.96"
/>
<path stroke="#93b0c4" vector-effect="non-scaling-stroke" d="
  M 934.75 436.96
  C 921.71 419.38 906.76 403.64 888.03 392.30"
/>
<path stroke="#76a3c4" vector-effect="non-scaling-stroke" d="
  M 888.03 392.30
  Q 882.24 387.36 875.24 384.36
  Q 875.20 384.34 875.22 384.30
  L 875.35 384.08
  Q 875.43 383.93 875.59 384.00
  L 877.96 385.14
  Q 877.99 385.16 878.00 385.13
  L 878.15 384.90
  Q 878.28 384.70 878.05 384.62
  Q 872.13 382.50 867.06 380.02
  Q 863.08 378.07 858.83 376.66
  Q 854.27 375.14 850.01 374.21
  Q 849.95 374.20 849.93 374.26
  L 849.87 374.51
  A 0.03 0.03 0.0 0 0 849.90 374.55
  Q 857.11 375.83 861.77 378.39
  Q 864.48 379.88 861.51 379.04
  Q 859.01 378.34 856.67 377.60
  Q 852.48 376.26 846.15 375.67
  Q 846.10 375.67 846.08 375.63
  Q 846.06 375.57 846.12 375.55
  Q 846.17 375.54 846.21 375.55
  Q 847.25 375.84 848.13 375.69
  Q 848.82 375.58 848.13 375.43
  Q 844.10 374.56 840.02 375.30"
/>
<path stroke="#93b0c4" vector-effect="non-scaling-stroke" d="
  M 840.02 375.30
  C 831.63 374.33 823.73 372.69 814.84 373.31
  C 813.35 373.41 812.06 372.84 810.51 372.87
  Q 803.01 373.01 796.27 374.55
  C 793.63 375.15 790.95 375.45 788.28 375.61
  Q 787.88 375.64 787.61 375.92
  Q 787.23 376.32 786.68 376.40
  Q 780.74 377.31 775.04 379.37
  Q 770.87 380.88 764.64 384.80
  Q 759.70 387.91 754.70 391.19"
/>
<path stroke="#76a3c4" vector-effect="non-scaling-stroke" d="
  M 754.70 391.19
  Q 756.26 383.46 757.81 375.98
  Q 759.76 366.58 760.51 360.70
  Q 763.46 337.48 761.63 314.17
  Q 760.99 306.01 758.91 294.37
  Q 757.01 283.70 754.89 272.75
  Q 752.59 260.84 747.54 249.46
  Q 745.67 245.25 743.70 240.20
  Q 741.38 234.25 736.66 226.75
  C 735.76 225.32 735.24 223.86 734.21 222.51
  Q 733.24 221.24 732.62 219.78
  C 731.88 218.02 730.63 216.88 729.84 215.09
  C 728.87 212.88 727.16 211.39 726.04 209.26
  Q 724.69 206.70 722.92 204.55
  Q 721.11 202.35 719.49 200.03
  C 716.95 196.39 714.67 192.59 711.27 189.61
  Q 707.54 186.33 704.82 182.42
  C 701.84 178.13 697.85 175.09 694.54 171.01
  C 691.17 166.84 686.76 163.44 682.74 159.88
  C 681.82 159.06 681.72 157.86 680.73 157.06
  Q 677.63 154.54 674.69 152.45
  A 0.07 0.06 -54.1 0 0 674.60 152.47
  L 674.46 152.68
  Q 674.33 152.89 674.54 153.03
  Q 676.02 153.98 677.32 155.07
  Q 677.52 155.24 677.29 155.11
  C 674.74 153.75 672.51 152.11 670.69 149.82
  Q 669.30 148.07 667.31 146.74
  Q 660.44 142.14 653.70 138.48
  Q 648.98 135.92 644.35 132.84
  Q 639.79 129.81 632.39 126.59
  Q 617.15 119.97 605.94 116.26
  C 604.10 115.65 602.23 115.81 600.47 115.15"
/>
<path stroke="#93b0c4" vector-effect="non-scaling-stroke" d="
  M 600.47 115.15
  Q 599.76 114.79 599.28 114.25"
/>
<path stroke="#76a3c4" vector-effect="non-scaling-stroke" d="
  M 599.28 114.25
  Q 596.64 112.80 593.69 111.95
  Q 583.64 109.04 573.39 106.90
  Q 563.66 104.88 556.72 105.12"
/>
<path stroke="#93b0c4" vector-effect="non-scaling-stroke" d="
  M 556.72 105.12
  Q 535.59 102.85 519.25 103.18
  Q 496.98 103.62 471.85 109.31
  C 463.27 111.26 455.62 114.24 447.42 117.07
  Q 446.79 117.29 446.29 117.73
  Q 445.73 118.22 445.10 118.66
  Q 444.28 119.23 443.25 119.55
  Q 441.01 120.23 438.80 120.98"
/>
<path stroke="#e2f3ff" vector-effect="non-scaling-stroke" d="
  M 556.72 105.12
  Q 564.58 106.17 572.15 108.42
  C 574.83 109.21 577.17 109.07 579.82 109.64
  Q 580.27 109.74 580.44 110.18
  Q 580.67 110.82 581.38 110.86
  Q 584.36 111.04 587.12 112.11
  C 589.32 112.96 591.64 112.98 593.93 113.32
  Q 594.18 113.36 596.46 114.17
  Q 597.76 114.63 599.28 114.25"
/>
<path stroke="#e2f3ff" vector-effect="non-scaling-stroke" d="
  M 600.47 115.15
  Q 594.24 113.95 588.04 112.66
  Q 587.87 112.62 587.83 112.79
  L 587.83 112.79
  Q 587.79 112.96 587.95 113.01
  Q 608.88 119.22 628.21 129.72
  C 633.49 132.58 638.52 136.35 642.99 140.24
  Q 657.50 152.88 674.58 171.20
  Q 681.70 178.84 686.51 185.46
  Q 692.99 194.41 696.62 201.36
  Q 707.52 222.27 715.03 248.51
  Q 719.10 262.72 719.73 277.51
  Q 719.97 283.23 720.20 288.75
  Q 720.33 291.80 718.01 296.26"
/>
<path stroke="#e2f3ff" vector-effect="non-scaling-stroke" d="
  M 422.48 603.46
  L 422.19 604.18
  Q 421.98 604.70 421.43 604.61
  Q 416.66 603.86 412.59 603.87
  Q 348.88 604.09 284.71 603.84
  Q 267.13 603.77 251.02 602.46
  Q 224.96 600.33 202.18 585.60
  C 192.75 579.51 184.08 570.63 176.23 562.27
  C 168.02 553.53 162.76 544.13 157.62 533.43
  Q 155.23 528.46 153.32 520.84
  Q 150.92 511.24 149.17 502.91
  Q 148.38 499.18 148.32 495.49
  Q 148.17 486.30 148.60 475.52
  Q 148.73 472.34 149.50 469.45
  C 150.03 467.49 149.69 465.70 150.07 463.83
  Q 151.96 454.51 155.02 444.09
  Q 155.48 442.53 153.86 442.72
  Q 152.56 442.88 151.06 444.55
  Q 146.57 449.55 141.46 455.04
  Q 139.50 457.14 138.35 459.60
  C 134.82 467.17 129.70 474.41 125.50 481.29
  Q 121.17 488.38 116.92 498.43
  Q 111.47 511.33 109.93 521.65
  C 108.92 528.49 108.26 535.39 107.30 542.31
  Q 107.23 542.83 106.78 543.08
  C 101.52 546.00 99.61 542.27 98.18 537.77"
/>
<path stroke="#e2f3ff" vector-effect="non-scaling-stroke" d="
  M 240.43 373.13
  Q 248.72 374.13 256.93 375.23
  C 258.70 375.47 260.50 375.38 262.22 375.92
  Q 264.38 376.60 266.46 376.63
  Q 268.90 376.67 270.74 377.14
  Q 278.05 378.99 285.05 381.84"
/>
<path stroke="#e2f3ff" vector-effect="non-scaling-stroke" d="
  M 305.93 254.25
  L 318.02 228.46"
/>
<path stroke="#e2f3ff" vector-effect="non-scaling-stroke" d="
  M 323.12 217.70
  L 323.73 217.65
  Q 324.29 217.60 324.32 217.04
  Q 324.34 216.71 324.56 216.47
  Q 325.20 215.76 324.74 216.59
  Q 324.56 216.90 324.39 217.19
  Q 324.34 217.28 324.42 217.33
  Q 324.53 217.40 324.61 217.50
  Q 324.73 217.67 324.80 217.48
  L 327.22 210.74
  Q 327.33 210.44 327.62 210.57
  L 327.88 210.69
  Q 327.90 210.70 327.87 210.75
  L 326.51 213.47
  Q 326.35 213.80 326.68 213.96
  L 326.95 214.10
  A 0.12 0.12 0.0 0 0 327.11 214.04
  Q 328.64 210.79 330.13 208.73
  Q 334.34 202.94 338.25 196.98
  C 340.99 192.80 344.46 188.91 347.45 184.72"
/>
<path stroke="#e2f3ff" vector-effect="non-scaling-stroke" d="
  M 423.21 127.52
  L 434.64 123.41
  Q 434.84 123.34 434.69 123.50
  Q 434.59 123.61 434.43 123.71
  Q 433.68 124.17 434.55 124.09
  Q 434.86 124.06 435.14 123.85
  Q 436.98 122.44 438.80 120.98"
/>
<path stroke="#e2f3ff" vector-effect="non-scaling-stroke" d="
  M 754.70 391.19
  Q 747.41 397.76 741.58 399.89
  Q 740.39 400.32 736.23 400.97"
/>
<path stroke="#e2f3ff" vector-effect="non-scaling-stroke" d="
  M 840.02 375.30
  Q 848.37 376.89 856.74 378.43
  Q 858.39 378.73 859.67 379.40
  Q 861.35 380.28 862.67 380.11
  Q 863.04 380.06 862.71 380.22
  Q 862.58 380.28 862.61 380.45
  A 0.15 0.15 0.0 0 0 862.73 380.57
  Q 866.19 381.33 869.24 383.34
  Q 871.62 384.91 874.77 386.12
  Q 881.60 388.74 888.03 392.30"
/>
<path stroke="#e2f3ff" vector-effect="non-scaling-stroke" d="
  M 934.75 436.96
  Q 933.36 439.70 931.62 440.82
  Q 930.42 441.59 929.18 440.89
  C 920.72 436.10 912.25 432.32 903.95 427.51
  Q 895.85 422.81 887.81 419.18
  A 0.49 0.49 0.0 0 0 887.11 419.62
  Q 887.09 420.94 887.79 422.07
  C 891.49 428.02 895.07 433.53 898.27 440.00
  Q 900.43 444.36 901.68 448.00
  Q 905.05 457.86 905.65 470.46
  Q 906.19 481.77 906.47 492.77
  Q 906.79 505.08 902.92 519.50
  C 901.13 526.18 898.98 532.57 895.88 538.78
  Q 889.94 550.64 883.64 559.19
  Q 875.85 569.75 866.31 577.47
  Q 846.68 593.35 821.44 600.21
  C 811.70 602.85 801.87 603.19 791.75 603.52
  Q 762.45 604.46 736.15 604.08"
/>
<path stroke="#76a3c4" vector-effect="non-scaling-stroke" d="
  M 572.05 680.95
  Q 573.46 683.34 577.75 683.35
  Q 578.25 683.35 578.66 683.64
  Q 580.20 684.70 582.00 685.13
  Q 584.37 685.69 585.95 686.10
  Q 588.82 686.85 591.30 687.21
  C 595.80 687.86 600.29 689.82 604.84 691.11
  Q 618.05 694.87 630.86 698.40
  Q 635.66 699.73 651.25 702.90
  Q 652.68 703.19 654.31 703.37
  Q 655.83 703.54 657.52 704.26
  Q 660.29 705.43 664.46 705.55"
/>
<path stroke="#93b0c4" vector-effect="non-scaling-stroke" d="
  M 664.46 705.55
  L 700.51 716.23
  A 0.45 0.45 0.0 0 0 701.07 715.67
  Q 700.51 713.85 700.53 711.75
  Q 701.40 620.40 700.42 518.50
  Q 700.28 504.30 700.93 458.50
  Q 701.46 420.35 700.40 335.50
  Q 700.38 334.25 700.52 333.01
  A 0.89 0.88 85.1 0 0 699.40 332.06
  Q 679.62 337.71 665.91 342.70
  Q 641.72 351.50 619.65 358.49
  Q 592.44 367.10 572.60 374.15
  A 1.90 1.89 -9.9 0 0 571.34 375.93
  Q 571.18 513.33 571.39 654.50
  Q 571.41 667.76 572.05 680.95"
/>
<path stroke="#e2f3ff" vector-effect="non-scaling-stroke" d="
  M 664.46 705.55
  Q 662.11 704.49 659.70 703.75
  Q 657.60 703.10 655.67 702.18
  Q 653.66 701.22 651.42 700.83
  C 647.87 700.21 644.58 699.90 641.14 698.50
  Q 637.25 696.91 633.31 695.66
  Q 624.29 692.77 614.98 690.12
  Q 607.98 688.12 599.95 686.55
  Q 588.30 684.27 584.74 683.66
  Q 576.99 682.31 572.05 680.95"
/>
<path stroke="#93b0c4" vector-effect="non-scaling-stroke" d="
  M 506.73 508.96
  Q 507.23 508.97 507.24 509.47
  L 507.61 567.73
  A 1.71 1.71 0.0 0 0 509.29 569.43
  L 512.14 569.48
  Q 513.67 569.51 513.68 567.99
  L 514.06 509.31
  A 0.65 0.65 0.0 0 1 514.72 508.66
  Q 524.38 508.75 533.37 508.51
  Q 534.45 508.49 535.45 508.14
  Q 536.77 507.68 535.94 506.56
  Q 525.56 492.62 516.03 477.72
  Q 513.11 473.15 510.64 468.22
  A 0.71 0.71 0.0 0 0 509.34 468.32
  Q 508.89 469.68 508.14 470.81
  Q 499.59 483.62 490.59 498.33
  C 488.69 501.42 486.13 503.98 484.70 507.40
  A 0.85 0.84 -75.5 0 0 485.38 508.57
  C 492.34 509.35 499.77 508.84 506.73 508.96"
/>
<path stroke="#e2f3ff" vector-effect="non-scaling-stroke" d="
  M 323.4069 219.9496
  A 0.86 0.45 98.9 0 0 323.9846 219.1696
  A 0.86 0.45 98.9 0 0 323.6731 218.2504
  A 0.86 0.45 98.9 0 0 323.0954 219.0304
  A 0.86 0.45 98.9 0 0 323.4069 219.9496"
/>
<path stroke="#76a3c4" vector-effect="non-scaling-stroke" d="
  M 562.87 105.64
  Q 563.01 105.79 563.21 105.74
  Q 563.58 105.65 563.24 105.48
  Q 563.06 105.39 562.89 105.50
  A 0.09 0.09 0.0 0 0 562.87 105.64"
/>
<path stroke="#93b0c4" vector-effect="non-scaling-stroke" d="
  M 679.22 372.53
  C 679.23 371.09 679.54 369.88 679.85 368.51
  A 0.54 0.54 0.0 0 0 679.29 367.85
  Q 677.10 368.03 675.20 368.64
  Q 662.08 372.86 652.04 375.23
  Q 641.91 377.62 633.09 380.61
  Q 616.35 386.29 597.27 393.54
  C 595.19 394.33 594.11 394.37 594.10 396.75
  Q 593.82 453.73 594.23 510.63
  A 0.53 0.53 0.0 0 0 594.87 511.14
  C 612.16 507.54 629.52 503.71 647.20 500.59
  Q 662.96 497.81 678.69 494.94
  Q 679.20 494.85 679.20 494.33
  Q 679.02 429.90 679.22 372.53"
/>
<path stroke="#93b0c4" vector-effect="non-scaling-stroke" d="
  M 679.1894 535.7817
  A 14.73 13.11 84.9 0 0 690.9381 519.9446
  A 14.73 13.11 84.9 0 0 676.5706 506.4383
  A 14.73 13.11 84.9 0 0 664.8219 522.2754
  A 14.73 13.11 84.9 0 0 679.1894 535.7817"
/>
<path stroke="#93b0c4" vector-effect="non-scaling-stroke" d="
  M 653.47 677.48
  C 653.58 677.65 653.78 677.81 653.97 677.85
  Q 666.29 680.76 678.03 684.83
  A 0.80 0.79 -79.7 0 0 679.09 684.09
  C 679.65 637.75 679.02 593.21 679.12 547.60
  Q 679.12 546.36 677.91 546.11
  Q 673.94 545.30 670.08 544.24
  C 662.10 542.05 657.76 536.87 655.27 529.33
  A 0.58 0.57 76.9 0 0 654.64 528.93
  Q 625.29 532.84 594.78 537.76
  A 0.97 0.97 0.0 0 0 593.96 538.72
  L 594.14 660.05
  A 1.82 1.81 -79.8 0 0 595.31 661.75
  Q 600.80 663.83 606.74 665.66
  Q 624.02 670.98 642.31 674.66
  Q 645.11 675.22 647.69 676.02
  Q 650.42 676.85 653.38 677.42
  Q 653.44 677.43 653.47 677.48"
/>
<path stroke="#93b0c4" vector-effect="non-scaling-stroke" d="
  M 663.15 390.16
  A 0.99 0.99 0.0 0 0 661.85 389.22
  L 609.86 406.36
  A 0.99 0.99 0.0 0 0 609.19 407.31
  L 609.77 491.24
  A 0.99 0.99 0.0 0 0 610.99 492.19
  L 662.55 480.00
  A 0.99 0.99 0.0 0 0 663.31 479.04
  L 663.15 390.16"
/>
<path stroke="#93b0c4" vector-effect="non-scaling-stroke" d="
  M 610.01 645.38
  C 610.01 646.98 610.77 648.42 612.26 649.06
  C 620.63 652.63 629.20 654.01 637.60 656.47
  Q 649.19 659.86 661.88 663.03
  Q 663.27 663.38 663.33 661.95
  Q 663.43 659.77 663.43 657.69
  Q 663.36 600.71 663.09 550.52
  A 1.49 1.48 1.9 0 0 661.71 549.05
  Q 658.24 548.79 654.88 548.95
  Q 640.98 549.60 624.11 551.20
  Q 617.10 551.87 609.98 552.02
  A 0.46 0.45 -1.3 0 0 609.53 552.48
  Q 609.94 600.04 610.01 645.38"
/>
</g>
<path fill="#276089" d="
  M 255.43 337.58
  A 1.16 1.15 -8.0 0 0 256.16 336.62
  Q 256.94 329.44 256.97 321.89
  Q 257.01 312.67 258.49 300.83
  Q 260.97 280.96 264.63 264.23
  Q 267.08 253.08 270.94 243.18
  C 272.28 239.75 274.57 236.93 276.22 233.52
  C 282.54 220.44 289.18 206.77 297.09 195.08
  C 311.73 173.43 329.62 150.79 348.09 135.23
  Q 358.75 126.26 377.98 112.74
  Q 386.74 106.58 396.21 101.52
  Q 428.87 84.08 460.92 76.54
  C 478.30 72.45 497.66 69.39 516.24 68.95
  Q 539.13 68.40 559.76 70.68
  Q 603.35 75.49 639.00 92.39
  C 654.70 99.83 670.16 107.95 684.33 118.02
  C 708.06 134.90 728.25 153.79 745.77 178.17
  Q 774.30 217.86 786.89 261.46
  C 789.89 271.86 792.34 283.71 793.66 294.66
  Q 796.20 315.76 797.41 337.48
  A 1.29 1.29 0.0 0 0 798.69 338.70
  Q 815.49 338.72 831.21 339.39
  C 868.91 341.00 905.17 359.29 933.64 383.01
  C 939.46 387.86 944.72 394.30 949.76 400.34
  C 970.10 424.70 985.53 454.74 991.58 486.07
  Q 997.12 514.79 994.49 540.60
  Q 989.42 590.50 960.66 630.97
  Q 946.97 650.24 931.32 664.82
  Q 918.69 676.60 899.38 686.96
  Q 880.83 696.92 863.47 701.77
  Q 836.07 709.42 806.25 710.24
  Q 774.38 711.10 736.61 711.19
  A 1.97 1.96 7.1 0 0 734.72 712.66
  C 734.18 714.76 733.61 717.01 733.65 719.20
  C 733.84 728.71 732.87 743.34 721.34 746.39
  Q 718.50 747.14 716.12 748.82
  Q 715.67 749.14 715.13 749.15
  Q 713.55 749.18 711.03 748.73
  C 690.73 745.11 671.12 739.21 651.67 733.55
  C 640.94 730.43 629.80 726.69 618.56 723.66
  Q 594.70 717.23 575.34 712.41
  Q 569.80 711.03 554.90 710.73
  C 535.85 710.34 517.09 709.97 498.26 710.05
  Q 426.40 710.36 354.01 711.11
  C 327.54 711.39 300.74 711.31 273.96 711.36
  Q 244.61 711.41 219.84 708.30
  Q 208.25 706.84 188.00 700.75
  Q 172.03 695.95 155.79 686.75
  Q 144.05 680.09 137.00 674.83
  C 117.65 660.38 102.23 641.32 88.72 621.08
  C 85.29 615.94 82.26 610.27 79.90 604.58
  C 72.57 586.93 66.35 568.74 63.94 550.49
  C 62.68 540.98 61.35 531.56 61.65 521.49
  Q 62.69 485.84 75.53 451.29
  Q 79.30 441.12 83.46 433.44
  Q 100.49 402.02 126.79 379.80
  C 148.02 361.86 172.14 350.17 198.82 342.85
  C 216.78 337.93 234.03 338.04 253.26 337.98
  Q 254.42 337.98 255.43 337.58
  Z
  M 438.80 120.98
  Q 435.57 121.88 434.78 122.21
  Q 431.12 123.70 423.21 127.52
  C 416.56 130.57 409.18 133.39 403.28 136.68
  Q 394.42 141.62 387.66 147.15
  Q 379.83 153.54 367.83 164.27
  C 360.80 170.55 354.15 177.80 347.45 184.72
  L 342.50 189.88
  Q 342.21 190.18 341.84 190.38
  Q 341.07 190.80 341.03 191.71
  Q 341.01 192.11 340.65 191.92
  Q 340.53 191.86 340.40 191.90
  Q 339.91 192.07 339.71 192.60
  Q 339.03 194.41 337.73 195.89
  Q 337.39 196.28 337.81 195.97
  Q 337.86 195.93 337.92 195.90
  Q 338.54 195.60 338.12 196.15
  Q 335.04 200.12 332.21 203.99
  Q 332.03 204.23 331.79 204.04
  L 331.46 203.78
  Q 331.41 203.74 331.44 203.69
  Q 332.29 202.33 333.12 201.24
  Q 333.20 201.13 333.11 201.00
  Q 333.07 200.95 333.03 201.00
  Q 332.05 202.53 330.70 203.79
  Q 330.54 203.94 330.75 203.87
  Q 330.79 203.85 330.84 203.87
  Q 331.05 203.97 331.06 204.20
  Q 331.13 205.63 329.99 206.50
  A 1.85 1.78 81.9 0 0 329.40 207.32
  Q 329.06 208.29 328.39 209.14
  Q 328.09 209.52 327.61 209.58
  Q 325.89 209.82 326.00 211.78
  A 1.30 1.27 -28.0 0 1 325.72 212.66
  Q 324.07 214.80 323.12 217.70
  L 318.02 228.46
  Q 313.27 234.86 311.76 237.75
  Q 309.37 242.33 305.99 252.05
  Q 304.46 256.44 305.93 254.25
  Q 305.62 255.63 304.89 256.82
  Q 304.77 257.01 304.97 257.12
  L 305.20 257.24
  Q 305.23 257.26 305.24 257.22
  Q 306.13 255.05 307.26 252.78
  Q 307.34 252.62 307.51 252.71
  L 307.73 252.82
  Q 307.75 252.84 307.74 252.86
  Q 306.25 255.22 305.41 257.90
  Q 304.19 261.82 302.64 265.97
  Q 302.35 266.75 301.89 267.38
  C 300.98 268.59 301.07 270.27 300.39 271.68
  Q 299.06 274.47 298.36 277.53
  Q 298.26 277.97 297.92 278.28
  Q 297.32 278.84 297.16 279.76
  Q 296.53 283.42 295.29 287.79
  C 294.38 290.99 294.69 294.16 293.83 297.36
  C 292.99 300.50 293.12 303.75 292.59 306.90
  Q 290.82 317.42 290.83 332.15
  C 290.83 348.21 291.88 362.54 296.59 377.96
  Q 298.48 384.15 300.49 390.37
  Q 301.18 392.52 299.65 390.86
  Q 298.11 389.19 295.54 387.72
  Q 290.29 384.72 285.05 381.84
  Q 283.43 380.56 281.90 380.10
  C 279.89 379.50 278.26 378.64 276.39 378.23
  C 274.28 377.77 271.98 376.83 270.21 376.37
  Q 255.65 372.58 240.43 373.13
  Q 233.74 372.80 227.00 373.57
  Q 218.25 374.57 209.52 375.73
  Q 205.54 376.26 202.03 377.10
  Q 198.41 377.96 194.65 378.96
  Q 194.30 379.05 194.13 379.39
  A 0.74 0.72 -79.5 0 1 193.55 379.80
  Q 189.92 380.15 187.20 381.49
  Q 184.73 382.71 182.18 383.81
  Q 179.39 385.01 177.01 386.52
  Q 166.81 393.02 155.30 401.75
  Q 143.77 410.50 136.06 420.81
  C 135.77 421.20 135.78 421.58 135.55 421.95
  Q 132.47 426.87 128.69 431.08
  Q 125.96 434.10 123.91 437.19
  Q 121.72 440.47 119.57 443.80
  Q 119.26 444.28 119.09 444.83
  Q 118.95 445.24 118.63 445.53
  Q 116.84 447.17 116.00 449.60
  A 1.70 1.69 80.4 0 1 115.47 450.35
  Q 115.10 450.66 114.87 451.08
  Q 111.96 456.46 110.57 460.85
  Q 109.15 465.35 107.70 469.25
  Q 104.74 477.22 102.44 485.43
  Q 102.33 485.83 102.71 485.65
  Q 103.01 485.50 102.86 485.13
  Q 102.81 485.01 102.88 485.11
  Q 102.90 485.13 102.93 485.15
  Q 102.99 485.16 102.97 485.22
  Q 101.22 490.96 100.50 495.31
  Q 98.77 505.78 98.79 517.39
  Q 98.79 517.88 98.50 518.29
  Q 98.25 518.63 98.23 519.04
  Q 97.87 528.44 98.18 537.77
  Q 98.75 547.92 100.10 554.97
  Q 103.83 574.46 113.20 593.59
  Q 128.76 625.35 156.23 646.33
  Q 162.21 650.90 172.97 656.97
  Q 173.40 657.21 173.93 657.11
  Q 174.27 657.04 174.47 657.33
  Q 175.25 658.44 176.62 658.35
  Q 176.74 658.34 176.63 658.37
  Q 176.50 658.41 176.38 658.48
  Q 176.21 658.58 176.36 658.71
  Q 179.72 661.60 184.36 663.69
  Q 193.12 667.64 200.92 670.96
  Q 203.51 672.06 206.39 672.09
  C 213.79 672.17 220.75 674.59 227.85 675.50
  Q 241.51 677.25 258.42 677.27
  Q 335.37 677.38 410.89 677.26
  Q 415.61 677.25 421.31 677.06
  A 0.94 0.94 0.0 0 0 422.22 676.12
  L 422.48 603.46
  C 422.72 519.97 422.50 436.49 422.59 353.00
  Q 422.59 348.10 423.66 344.48
  C 424.85 340.39 429.55 336.76 433.90 336.21
  Q 436.66 335.85 439.49 335.86
  Q 494.27 335.98 572.06 335.69
  Q 584.93 335.64 589.91 334.78
  Q 597.94 333.40 606.26 330.74
  C 615.95 327.65 626.03 324.05 635.50 320.14
  Q 646.37 315.66 657.62 312.96
  Q 667.09 310.69 676.08 307.82
  Q 691.68 302.85 706.51 297.50
  Q 712.77 295.24 718.01 296.26
  Q 725.51 299.00 729.94 305.03
  Q 734.73 311.55 735.73 318.39
  Q 736.01 320.31 736.08 332.62
  Q 736.25 364.24 736.19 397.00
  Q 736.19 399.08 736.23 400.97
  Q 735.90 449.45 735.46 497.75
  Q 735.19 527.79 736.15 604.08
  L 736.67 675.56
  A 2.19 2.19 0.0 0 0 738.87 677.73
  Q 767.94 677.54 795.44 677.62
  Q 817.97 677.68 841.39 674.15
  Q 847.16 673.28 852.49 671.66
  C 860.03 669.38 868.01 666.67 874.77 663.04
  C 886.51 656.73 899.29 648.52 907.95 640.20
  Q 915.92 632.55 923.63 625.37
  Q 929.31 620.09 933.33 613.73
  C 935.19 610.80 937.51 608.42 939.12 605.35
  C 940.33 603.02 941.92 600.89 943.21 598.54
  Q 943.45 598.12 943.29 597.67
  L 943.16 597.31
  A 0.83 0.81 57.5 0 1 943.33 596.50
  Q 944.29 595.46 944.39 593.99
  A 1.71 1.69 -26.2 0 1 944.69 593.13
  Q 945.61 591.77 945.97 590.12
  Q 946.30 588.59 946.91 587.17
  Q 949.11 582.10 951.27 576.84
  Q 951.72 575.76 951.83 574.56
  Q 951.94 573.38 952.44 572.26
  Q 953.13 570.70 953.66 569.03
  Q 955.40 563.55 956.49 558.44
  Q 958.79 547.60 959.78 535.62
  Q 961.35 516.61 958.61 497.75
  C 957.77 492.01 956.07 486.17 954.92 480.43
  Q 954.15 476.64 952.59 472.89
  Q 950.98 469.01 950.10 465.43
  Q 949.18 461.64 947.30 458.42
  C 946.62 457.26 946.43 456.23 946.02 455.01
  Q 945.59 453.76 944.80 452.54
  Q 943.11 449.92 941.65 447.11
  C 941.28 446.40 941.38 445.57 941.14 445.00
  Q 940.04 442.39 934.75 436.96
  C 921.71 419.38 906.76 403.64 888.03 392.30
  Q 882.24 387.36 875.24 384.36
  Q 875.20 384.34 875.22 384.30
  L 875.35 384.08
  Q 875.43 383.93 875.59 384.00
  L 877.96 385.14
  Q 877.99 385.16 878.00 385.13
  L 878.15 384.90
  Q 878.28 384.70 878.05 384.62
  Q 872.13 382.50 867.06 380.02
  Q 863.08 378.07 858.83 376.66
  Q 854.27 375.14 850.01 374.21
  Q 849.95 374.20 849.93 374.26
  L 849.87 374.51
  A 0.03 0.03 0.0 0 0 849.90 374.55
  Q 857.11 375.83 861.77 378.39
  Q 864.48 379.88 861.51 379.04
  Q 859.01 378.34 856.67 377.60
  Q 852.48 376.26 846.15 375.67
  Q 846.10 375.67 846.08 375.63
  Q 846.06 375.57 846.12 375.55
  Q 846.17 375.54 846.21 375.55
  Q 847.25 375.84 848.13 375.69
  Q 848.82 375.58 848.13 375.43
  Q 844.10 374.56 840.02 375.30
  C 831.63 374.33 823.73 372.69 814.84 373.31
  C 813.35 373.41 812.06 372.84 810.51 372.87
  Q 803.01 373.01 796.27 374.55
  C 793.63 375.15 790.95 375.45 788.28 375.61
  Q 787.88 375.64 787.61 375.92
  Q 787.23 376.32 786.68 376.40
  Q 780.74 377.31 775.04 379.37
  Q 770.87 380.88 764.64 384.80
  Q 759.70 387.91 754.70 391.19
  Q 756.26 383.46 757.81 375.98
  Q 759.76 366.58 760.51 360.70
  Q 763.46 337.48 761.63 314.17
  Q 760.99 306.01 758.91 294.37
  Q 757.01 283.70 754.89 272.75
  Q 752.59 260.84 747.54 249.46
  Q 745.67 245.25 743.70 240.20
  Q 741.38 234.25 736.66 226.75
  C 735.76 225.32 735.24 223.86 734.21 222.51
  Q 733.24 221.24 732.62 219.78
  C 731.88 218.02 730.63 216.88 729.84 215.09
  C 728.87 212.88 727.16 211.39 726.04 209.26
  Q 724.69 206.70 722.92 204.55
  Q 721.11 202.35 719.49 200.03
  C 716.95 196.39 714.67 192.59 711.27 189.61
  Q 707.54 186.33 704.82 182.42
  C 701.84 178.13 697.85 175.09 694.54 171.01
  C 691.17 166.84 686.76 163.44 682.74 159.88
  C 681.82 159.06 681.72 157.86 680.73 157.06
  Q 677.63 154.54 674.69 152.45
  A 0.07 0.06 -54.1 0 0 674.60 152.47
  L 674.46 152.68
  Q 674.33 152.89 674.54 153.03
  Q 676.02 153.98 677.32 155.07
  Q 677.52 155.24 677.29 155.11
  C 674.74 153.75 672.51 152.11 670.69 149.82
  Q 669.30 148.07 667.31 146.74
  Q 660.44 142.14 653.70 138.48
  Q 648.98 135.92 644.35 132.84
  Q 639.79 129.81 632.39 126.59
  Q 617.15 119.97 605.94 116.26
  C 604.10 115.65 602.23 115.81 600.47 115.15
  Q 599.76 114.79 599.28 114.25
  Q 596.64 112.80 593.69 111.95
  Q 583.64 109.04 573.39 106.90
  Q 563.66 104.88 556.72 105.12
  Q 535.59 102.85 519.25 103.18
  Q 496.98 103.62 471.85 109.31
  C 463.27 111.26 455.62 114.24 447.42 117.07
  Q 446.79 117.29 446.29 117.73
  Q 445.73 118.22 445.10 118.66
  Q 444.28 119.23 443.25 119.55
  Q 441.01 120.23 438.80 120.98
  Z
  M 572.05 680.95
  Q 573.46 683.34 577.75 683.35
  Q 578.25 683.35 578.66 683.64
  Q 580.20 684.70 582.00 685.13
  Q 584.37 685.69 585.95 686.10
  Q 588.82 686.85 591.30 687.21
  C 595.80 687.86 600.29 689.82 604.84 691.11
  Q 618.05 694.87 630.86 698.40
  Q 635.66 699.73 651.25 702.90
  Q 652.68 703.19 654.31 703.37
  Q 655.83 703.54 657.52 704.26
  Q 660.29 705.43 664.46 705.55
  L 700.51 716.23
  A 0.45 0.45 0.0 0 0 701.07 715.67
  Q 700.51 713.85 700.53 711.75
  Q 701.40 620.40 700.42 518.50
  Q 700.28 504.30 700.93 458.50
  Q 701.46 420.35 700.40 335.50
  Q 700.38 334.25 700.52 333.01
  A 0.89 0.88 85.1 0 0 699.40 332.06
  Q 679.62 337.71 665.91 342.70
  Q 641.72 351.50 619.65 358.49
  Q 592.44 367.10 572.60 374.15
  A 1.90 1.89 -9.9 0 0 571.34 375.93
  Q 571.18 513.33 571.39 654.50
  Q 571.41 667.76 572.05 680.95
  Z
  M 506.73 508.96
  Q 507.23 508.97 507.24 509.47
  L 507.61 567.73
  A 1.71 1.71 0.0 0 0 509.29 569.43
  L 512.14 569.48
  Q 513.67 569.51 513.68 567.99
  L 514.06 509.31
  A 0.65 0.65 0.0 0 1 514.72 508.66
  Q 524.38 508.75 533.37 508.51
  Q 534.45 508.49 535.45 508.14
  Q 536.77 507.68 535.94 506.56
  Q 525.56 492.62 516.03 477.72
  Q 513.11 473.15 510.64 468.22
  A 0.71 0.71 0.0 0 0 509.34 468.32
  Q 508.89 469.68 508.14 470.81
  Q 499.59 483.62 490.59 498.33
  C 488.69 501.42 486.13 503.98 484.70 507.40
  A 0.85 0.84 -75.5 0 0 485.38 508.57
  C 492.34 509.35 499.77 508.84 506.73 508.96
  Z"
/>
<path fill="#ffffff" d="
  M 556.72 105.12
  Q 564.58 106.17 572.15 108.42
  C 574.83 109.21 577.17 109.07 579.82 109.64
  Q 580.27 109.74 580.44 110.18
  Q 580.67 110.82 581.38 110.86
  Q 584.36 111.04 587.12 112.11
  C 589.32 112.96 591.64 112.98 593.93 113.32
  Q 594.18 113.36 596.46 114.17
  Q 597.76 114.63 599.28 114.25
  Q 599.76 114.79 600.47 115.15
  Q 594.24 113.95 588.04 112.66
  Q 587.87 112.62 587.83 112.79
  L 587.83 112.79
  Q 587.79 112.96 587.95 113.01
  Q 608.88 119.22 628.21 129.72
  C 633.49 132.58 638.52 136.35 642.99 140.24
  Q 657.50 152.88 674.58 171.20
  Q 681.70 178.84 686.51 185.46
  Q 692.99 194.41 696.62 201.36
  Q 707.52 222.27 715.03 248.51
  Q 719.10 262.72 719.73 277.51
  Q 719.97 283.23 720.20 288.75
  Q 720.33 291.80 718.01 296.26
  Q 712.77 295.24 706.51 297.50
  Q 691.68 302.85 676.08 307.82
  Q 667.09 310.69 657.62 312.96
  Q 646.37 315.66 635.50 320.14
  C 626.03 324.05 615.95 327.65 606.26 330.74
  Q 597.94 333.40 589.91 334.78
  Q 584.93 335.64 572.06 335.69
  Q 494.27 335.98 439.49 335.86
  Q 436.66 335.85 433.90 336.21
  C 429.55 336.76 424.85 340.39 423.66 344.48
  Q 422.59 348.10 422.59 353.00
  C 422.50 436.49 422.72 519.97 422.48 603.46
  L 422.19 604.18
  Q 421.98 604.70 421.43 604.61
  Q 416.66 603.86 412.59 603.87
  Q 348.88 604.09 284.71 603.84
  Q 267.13 603.77 251.02 602.46
  Q 224.96 600.33 202.18 585.60
  C 192.75 579.51 184.08 570.63 176.23 562.27
  C 168.02 553.53 162.76 544.13 157.62 533.43
  Q 155.23 528.46 153.32 520.84
  Q 150.92 511.24 149.17 502.91
  Q 148.38 499.18 148.32 495.49
  Q 148.17 486.30 148.60 475.52
  Q 148.73 472.34 149.50 469.45
  C 150.03 467.49 149.69 465.70 150.07 463.83
  Q 151.96 454.51 155.02 444.09
  Q 155.48 442.53 153.86 442.72
  Q 152.56 442.88 151.06 444.55
  Q 146.57 449.55 141.46 455.04
  Q 139.50 457.14 138.35 459.60
  C 134.82 467.17 129.70 474.41 125.50 481.29
  Q 121.17 488.38 116.92 498.43
  Q 111.47 511.33 109.93 521.65
  C 108.92 528.49 108.26 535.39 107.30 542.31
  Q 107.23 542.83 106.78 543.08
  C 101.52 546.00 99.61 542.27 98.18 537.77
  Q 97.87 528.44 98.23 519.04
  Q 98.25 518.63 98.50 518.29
  Q 98.79 517.88 98.79 517.39
  Q 98.77 505.78 100.50 495.31
  Q 101.22 490.96 102.97 485.22
  Q 102.99 485.16 102.93 485.15
  Q 102.90 485.13 102.88 485.11
  Q 102.81 485.01 102.86 485.13
  Q 103.01 485.50 102.71 485.65
  Q 102.33 485.83 102.44 485.43
  Q 104.74 477.22 107.70 469.25
  Q 109.15 465.35 110.57 460.85
  Q 111.96 456.46 114.87 451.08
  Q 115.10 450.66 115.47 450.35
  A 1.70 1.69 80.4 0 0 116.00 449.60
  Q 116.84 447.17 118.63 445.53
  Q 118.95 445.24 119.09 444.83
  Q 119.26 444.28 119.57 443.80
  Q 121.72 440.47 123.91 437.19
  Q 125.96 434.10 128.69 431.08
  Q 132.47 426.87 135.55 421.95
  C 135.78 421.58 135.77 421.20 136.06 420.81
  Q 143.77 410.50 155.30 401.75
  Q 166.81 393.02 177.01 386.52
  Q 179.39 385.01 182.18 383.81
  Q 184.73 382.71 187.20 381.49
  Q 189.92 380.15 193.55 379.80
  A 0.74 0.72 -79.5 0 0 194.13 379.39
  Q 194.30 379.05 194.65 378.96
  Q 198.41 377.96 202.03 377.10
  Q 205.54 376.26 209.52 375.73
  Q 218.25 374.57 227.00 373.57
  Q 233.74 372.80 240.43 373.13
  Q 248.72 374.13 256.93 375.23
  C 258.70 375.47 260.50 375.38 262.22 375.92
  Q 264.38 376.60 266.46 376.63
  Q 268.90 376.67 270.74 377.14
  Q 278.05 378.99 285.05 381.84
  Q 290.29 384.72 295.54 387.72
  Q 298.11 389.19 299.65 390.86
  Q 301.18 392.52 300.49 390.37
  Q 298.48 384.15 296.59 377.96
  C 291.88 362.54 290.83 348.21 290.83 332.15
  Q 290.82 317.42 292.59 306.90
  C 293.12 303.75 292.99 300.50 293.83 297.36
  C 294.69 294.16 294.38 290.99 295.29 287.79
  Q 296.53 283.42 297.16 279.76
  Q 297.32 278.84 297.92 278.28
  Q 298.26 277.97 298.36 277.53
  Q 299.06 274.47 300.39 271.68
  C 301.07 270.27 300.98 268.59 301.89 267.38
  Q 302.35 266.75 302.64 265.97
  Q 304.19 261.82 305.41 257.90
  Q 306.25 255.22 307.74 252.86
  Q 307.75 252.84 307.73 252.82
  L 307.51 252.71
  Q 307.34 252.62 307.26 252.78
  Q 306.13 255.05 305.24 257.22
  Q 305.23 257.26 305.20 257.24
  L 304.97 257.12
  Q 304.77 257.01 304.89 256.82
  Q 305.62 255.63 305.93 254.25
  L 318.02 228.46
  L 323.12 217.70
  L 323.73 217.65
  Q 324.29 217.60 324.32 217.04
  Q 324.34 216.71 324.56 216.47
  Q 325.20 215.76 324.74 216.59
  Q 324.56 216.90 324.39 217.19
  Q 324.34 217.28 324.42 217.33
  Q 324.53 217.40 324.61 217.50
  Q 324.73 217.67 324.80 217.48
  L 327.22 210.74
  Q 327.33 210.44 327.62 210.57
  L 327.88 210.69
  Q 327.90 210.70 327.87 210.75
  L 326.51 213.47
  Q 326.35 213.80 326.68 213.96
  L 326.95 214.10
  A 0.12 0.12 0.0 0 0 327.11 214.04
  Q 328.64 210.79 330.13 208.73
  Q 334.34 202.94 338.25 196.98
  C 340.99 192.80 344.46 188.91 347.45 184.72
  C 354.15 177.80 360.80 170.55 367.83 164.27
  Q 379.83 153.54 387.66 147.15
  Q 394.42 141.62 403.28 136.68
  C 409.18 133.39 416.56 130.57 423.21 127.52
  L 434.64 123.41
  Q 434.84 123.34 434.69 123.50
  Q 434.59 123.61 434.43 123.71
  Q 433.68 124.17 434.55 124.09
  Q 434.86 124.06 435.14 123.85
  Q 436.98 122.44 438.80 120.98
  Q 441.01 120.23 443.25 119.55
  Q 444.28 119.23 445.10 118.66
  Q 445.73 118.22 446.29 117.73
  Q 446.79 117.29 447.42 117.07
  C 455.62 114.24 463.27 111.26 471.85 109.31
  Q 496.98 103.62 519.25 103.18
  Q 535.59 102.85 556.72 105.12
  Z
  M 323.4069 219.9496
  A 0.86 0.45 98.9 0 0 323.9846 219.1696
  A 0.86 0.45 98.9 0 0 323.6731 218.2504
  A 0.86 0.45 98.9 0 0 323.0954 219.0304
  A 0.86 0.45 98.9 0 0 323.4069 219.9496
  Z"
/>
<path fill="#c4e6ff" d="
  M 599.28 114.25
  Q 597.76 114.63 596.46 114.17
  Q 594.18 113.36 593.93 113.32
  C 591.64 112.98 589.32 112.96 587.12 112.11
  Q 584.36 111.04 581.38 110.86
  Q 580.67 110.82 580.44 110.18
  Q 580.27 109.74 579.82 109.64
  C 577.17 109.07 574.83 109.21 572.15 108.42
  Q 564.58 106.17 556.72 105.12
  Q 563.66 104.88 573.39 106.90
  Q 583.64 109.04 593.69 111.95
  Q 596.64 112.80 599.28 114.25
  Z
  M 562.87 105.64
  Q 563.01 105.79 563.21 105.74
  Q 563.58 105.65 563.24 105.48
  Q 563.06 105.39 562.89 105.50
  A 0.09 0.09 0.0 0 0 562.87 105.64
  Z"
/>
<path fill="#276089" d="
  M 562.87 105.64
  A 0.09 0.09 0.0 0 1 562.89 105.50
  Q 563.06 105.39 563.24 105.48
  Q 563.58 105.65 563.21 105.74
  Q 563.01 105.79 562.87 105.64
  Z"
/>
<path fill="#c4e6ff" d="
  M 600.47 115.15
  C 602.23 115.81 604.10 115.65 605.94 116.26
  Q 617.15 119.97 632.39 126.59
  Q 639.79 129.81 644.35 132.84
  Q 648.98 135.92 653.70 138.48
  Q 660.44 142.14 667.31 146.74
  Q 669.30 148.07 670.69 149.82
  C 672.51 152.11 674.74 153.75 677.29 155.11
  Q 677.52 155.24 677.32 155.07
  Q 676.02 153.98 674.54 153.03
  Q 674.33 152.89 674.46 152.68
  L 674.60 152.47
  A 0.07 0.06 -54.1 0 1 674.69 152.45
  Q 677.63 154.54 680.73 157.06
  C 681.72 157.86 681.82 159.06 682.74 159.88
  C 686.76 163.44 691.17 166.84 694.54 171.01
  C 697.85 175.09 701.84 178.13 704.82 182.42
  Q 707.54 186.33 711.27 189.61
  C 714.67 192.59 716.95 196.39 719.49 200.03
  Q 721.11 202.35 722.92 204.55
  Q 724.69 206.70 726.04 209.26
  C 727.16 211.39 728.87 212.88 729.84 215.09
  C 730.63 216.88 731.88 218.02 732.62 219.78
  Q 733.24 221.24 734.21 222.51
  C 735.24 223.86 735.76 225.32 736.66 226.75
  Q 741.38 234.25 743.70 240.20
  Q 745.67 245.25 747.54 249.46
  Q 752.59 260.84 754.89 272.75
  Q 757.01 283.70 758.91 294.37
  Q 760.99 306.01 761.63 314.17
  Q 763.46 337.48 760.51 360.70
  Q 759.76 366.58 757.81 375.98
  Q 756.26 383.46 754.70 391.19
  Q 747.41 397.76 741.58 399.89
  Q 740.39 400.32 736.23 400.97
  Q 736.19 399.08 736.19 397.00
  Q 736.25 364.24 736.08 332.62
  Q 736.01 320.31 735.73 318.39
  Q 734.73 311.55 729.94 305.03
  Q 725.51 299.00 718.01 296.26
  Q 720.33 291.80 720.20 288.75
  Q 719.97 283.23 719.73 277.51
  Q 719.10 262.72 715.03 248.51
  Q 707.52 222.27 696.62 201.36
  Q 692.99 194.41 686.51 185.46
  Q 681.70 178.84 674.58 171.20
  Q 657.50 152.88 642.99 140.24
  C 638.52 136.35 633.49 132.58 628.21 129.72
  Q 608.88 119.22 587.95 113.01
  Q 587.79 112.96 587.83 112.79
  L 587.83 112.79
  Q 587.87 112.62 588.04 112.66
  Q 594.24 113.95 600.47 115.15
  Z"
/>
<path fill="#c4e6ff" d="
  M 438.80 120.98
  Q 436.98 122.44 435.14 123.85
  Q 434.86 124.06 434.55 124.09
  Q 433.68 124.17 434.43 123.71
  Q 434.59 123.61 434.69 123.50
  Q 434.84 123.34 434.64 123.41
  L 423.21 127.52
  Q 431.12 123.70 434.78 122.21
  Q 435.57 121.88 438.80 120.98
  Z"
/>
<path fill="#c4e6ff" d="
  M 347.45 184.72
  C 344.46 188.91 340.99 192.80 338.25 196.98
  Q 334.34 202.94 330.13 208.73
  Q 328.64 210.79 327.11 214.04
  A 0.12 0.12 0.0 0 1 326.95 214.10
  L 326.68 213.96
  Q 326.35 213.80 326.51 213.47
  L 327.87 210.75
  Q 327.90 210.70 327.88 210.69
  L 327.62 210.57
  Q 327.33 210.44 327.22 210.74
  L 324.80 217.48
  Q 324.73 217.67 324.61 217.50
  Q 324.53 217.40 324.42 217.33
  Q 324.34 217.28 324.39 217.19
  Q 324.56 216.90 324.74 216.59
  Q 325.20 215.76 324.56 216.47
  Q 324.34 216.71 324.32 217.04
  Q 324.29 217.60 323.73 217.65
  L 323.12 217.70
  Q 324.07 214.80 325.72 212.66
  A 1.30 1.27 -28.0 0 0 326.00 211.78
  Q 325.89 209.82 327.61 209.58
  Q 328.09 209.52 328.39 209.14
  Q 329.06 208.29 329.40 207.32
  A 1.85 1.78 81.9 0 1 329.99 206.50
  Q 331.13 205.63 331.06 204.20
  Q 331.05 203.97 330.84 203.87
  Q 330.79 203.85 330.75 203.87
  Q 330.54 203.94 330.70 203.79
  Q 332.05 202.53 333.03 201.00
  Q 333.07 200.95 333.11 201.00
  Q 333.20 201.13 333.12 201.24
  Q 332.29 202.33 331.44 203.69
  Q 331.41 203.74 331.46 203.78
  L 331.79 204.04
  Q 332.03 204.23 332.21 203.99
  Q 335.04 200.12 338.12 196.15
  Q 338.54 195.60 337.92 195.90
  Q 337.86 195.93 337.81 195.97
  Q 337.39 196.28 337.73 195.89
  Q 339.03 194.41 339.71 192.60
  Q 339.91 192.07 340.40 191.90
  Q 340.53 191.86 340.65 191.92
  Q 341.01 192.11 341.03 191.71
  Q 341.07 190.80 341.84 190.38
  Q 342.21 190.18 342.50 189.88
  L 347.45 184.72
  Z"
/>
<ellipse fill="#c4e6ff" cx="0.00" cy="0.00" transform="translate(323.54,219.10) rotate(98.9)" rx="0.86" ry="0.45"/>
<path fill="#c4e6ff" d="
  M 305.93 254.25
  Q 304.46 256.44 305.99 252.05
  Q 309.37 242.33 311.76 237.75
  Q 313.27 234.86 318.02 228.46
  L 305.93 254.25
  Z"
/>
<path fill="#ffffff" d="
  M 664.46 705.55
  Q 662.11 704.49 659.70 703.75
  Q 657.60 703.10 655.67 702.18
  Q 653.66 701.22 651.42 700.83
  C 647.87 700.21 644.58 699.90 641.14 698.50
  Q 637.25 696.91 633.31 695.66
  Q 624.29 692.77 614.98 690.12
  Q 607.98 688.12 599.95 686.55
  Q 588.30 684.27 584.74 683.66
  Q 576.99 682.31 572.05 680.95
  Q 571.41 667.76 571.39 654.50
  Q 571.18 513.33 571.34 375.93
  A 1.90 1.89 -9.9 0 1 572.60 374.15
  Q 592.44 367.10 619.65 358.49
  Q 641.72 351.50 665.91 342.70
  Q 679.62 337.71 699.40 332.06
  A 0.89 0.88 85.1 0 1 700.52 333.01
  Q 700.38 334.25 700.40 335.50
  Q 701.46 420.35 700.93 458.50
  Q 700.28 504.30 700.42 518.50
  Q 701.40 620.40 700.53 711.75
  Q 700.51 713.85 701.07 715.67
  A 0.45 0.45 0.0 0 1 700.51 716.23
  L 664.46 705.55
  Z
  M 679.22 372.53
  C 679.23 371.09 679.54 369.88 679.85 368.51
  A 0.54 0.54 0.0 0 0 679.29 367.85
  Q 677.10 368.03 675.20 368.64
  Q 662.08 372.86 652.04 375.23
  Q 641.91 377.62 633.09 380.61
  Q 616.35 386.29 597.27 393.54
  C 595.19 394.33 594.11 394.37 594.10 396.75
  Q 593.82 453.73 594.23 510.63
  A 0.53 0.53 0.0 0 0 594.87 511.14
  C 612.16 507.54 629.52 503.71 647.20 500.59
  Q 662.96 497.81 678.69 494.94
  Q 679.20 494.85 679.20 494.33
  Q 679.02 429.90 679.22 372.53
  Z
  M 679.1894 535.7817
  A 14.73 13.11 84.9 0 0 690.9381 519.9446
  A 14.73 13.11 84.9 0 0 676.5706 506.4383
  A 14.73 13.11 84.9 0 0 664.8219 522.2754
  A 14.73 13.11 84.9 0 0 679.1894 535.7817
  Z
  M 653.47 677.48
  C 653.58 677.65 653.78 677.81 653.97 677.85
  Q 666.29 680.76 678.03 684.83
  A 0.80 0.79 -79.7 0 0 679.09 684.09
  C 679.65 637.75 679.02 593.21 679.12 547.60
  Q 679.12 546.36 677.91 546.11
  Q 673.94 545.30 670.08 544.24
  C 662.10 542.05 657.76 536.87 655.27 529.33
  A 0.58 0.57 76.9 0 0 654.64 528.93
  Q 625.29 532.84 594.78 537.76
  A 0.97 0.97 0.0 0 0 593.96 538.72
  L 594.14 660.05
  A 1.82 1.81 -79.8 0 0 595.31 661.75
  Q 600.80 663.83 606.74 665.66
  Q 624.02 670.98 642.31 674.66
  Q 645.11 675.22 647.69 676.02
  Q 650.42 676.85 653.38 677.42
  Q 653.44 677.43 653.47 677.48
  Z"
/>
<path fill="#276089" d="
  M 679.22 372.53
  Q 679.02 429.90 679.20 494.33
  Q 679.20 494.85 678.69 494.94
  Q 662.96 497.81 647.20 500.59
  C 629.52 503.71 612.16 507.54 594.87 511.14
  A 0.53 0.53 0.0 0 1 594.23 510.63
  Q 593.82 453.73 594.10 396.75
  C 594.11 394.37 595.19 394.33 597.27 393.54
  Q 616.35 386.29 633.09 380.61
  Q 641.91 377.62 652.04 375.23
  Q 662.08 372.86 675.20 368.64
  Q 677.10 368.03 679.29 367.85
  A 0.54 0.54 0.0 0 1 679.85 368.51
  C 679.54 369.88 679.23 371.09 679.22 372.53
  Z
  M 663.15 390.16
  A 0.99 0.99 0.0 0 0 661.85 389.22
  L 609.86 406.36
  A 0.99 0.99 0.0 0 0 609.19 407.31
  L 609.77 491.24
  A 0.99 0.99 0.0 0 0 610.99 492.19
  L 662.55 480.00
  A 0.99 0.99 0.0 0 0 663.31 479.04
  L 663.15 390.16
  Z"
/>
<path fill="#ffffff" d="
  M 840.02 375.30
  Q 848.37 376.89 856.74 378.43
  Q 858.39 378.73 859.67 379.40
  Q 861.35 380.28 862.67 380.11
  Q 863.04 380.06 862.71 380.22
  Q 862.58 380.28 862.61 380.45
  A 0.15 0.15 0.0 0 0 862.73 380.57
  Q 866.19 381.33 869.24 383.34
  Q 871.62 384.91 874.77 386.12
  Q 881.60 388.74 888.03 392.30
  C 906.76 403.64 921.71 419.38 934.75 436.96
  Q 933.36 439.70 931.62 440.82
  Q 930.42 441.59 929.18 440.89
  C 920.72 436.10 912.25 432.32 903.95 427.51
  Q 895.85 422.81 887.81 419.18
  A 0.49 0.49 0.0 0 0 887.11 419.62
  Q 887.09 420.94 887.79 422.07
  C 891.49 428.02 895.07 433.53 898.27 440.00
  Q 900.43 444.36 901.68 448.00
  Q 905.05 457.86 905.65 470.46
  Q 906.19 481.77 906.47 492.77
  Q 906.79 505.08 902.92 519.50
  C 901.13 526.18 898.98 532.57 895.88 538.78
  Q 889.94 550.64 883.64 559.19
  Q 875.85 569.75 866.31 577.47
  Q 846.68 593.35 821.44 600.21
  C 811.70 602.85 801.87 603.19 791.75 603.52
  Q 762.45 604.46 736.15 604.08
  Q 735.19 527.79 735.46 497.75
  Q 735.90 449.45 736.23 400.97
  Q 740.39 400.32 741.58 399.89
  Q 747.41 397.76 754.70 391.19
  Q 759.70 387.91 764.64 384.80
  Q 770.87 380.88 775.04 379.37
  Q 780.74 377.31 786.68 376.40
  Q 787.23 376.32 787.61 375.92
  Q 787.88 375.64 788.28 375.61
  C 790.95 375.45 793.63 375.15 796.27 374.55
  Q 803.01 373.01 810.51 372.87
  C 812.06 372.84 813.35 373.41 814.84 373.31
  C 823.73 372.69 831.63 374.33 840.02 375.30
  Z"
/>
<path fill="#c4e6ff" d="
  M 285.05 381.84
  Q 278.05 378.99 270.74 377.14
  Q 268.90 376.67 266.46 376.63
  Q 264.38 376.60 262.22 375.92
  C 260.50 375.38 258.70 375.47 256.93 375.23
  Q 248.72 374.13 240.43 373.13
  Q 255.65 372.58 270.21 376.37
  C 271.98 376.83 274.28 377.77 276.39 378.23
  C 278.26 378.64 279.89 379.50 281.90 380.10
  Q 283.43 380.56 285.05 381.84
  Z"
/>
<path fill="#c4e6ff" d="
  M 888.03 392.30
  Q 881.60 388.74 874.77 386.12
  Q 871.62 384.91 869.24 383.34
  Q 866.19 381.33 862.73 380.57
  A 0.15 0.15 0.0 0 1 862.61 380.45
  Q 862.58 380.28 862.71 380.22
  Q 863.04 380.06 862.67 380.11
  Q 861.35 380.28 859.67 379.40
  Q 858.39 378.73 856.74 378.43
  Q 848.37 376.89 840.02 375.30
  Q 844.10 374.56 848.13 375.43
  Q 848.82 375.58 848.13 375.69
  Q 847.25 375.84 846.21 375.55
  Q 846.17 375.54 846.12 375.55
  Q 846.06 375.57 846.08 375.63
  Q 846.10 375.67 846.15 375.67
  Q 852.48 376.26 856.67 377.60
  Q 859.01 378.34 861.51 379.04
  Q 864.48 379.88 861.77 378.39
  Q 857.11 375.83 849.90 374.55
  A 0.03 0.03 0.0 0 1 849.87 374.51
  L 849.93 374.26
  Q 849.95 374.20 850.01 374.21
  Q 854.27 375.14 858.83 376.66
  Q 863.08 378.07 867.06 380.02
  Q 872.13 382.50 878.05 384.62
  Q 878.28 384.70 878.15 384.90
  L 878.00 385.13
  Q 877.99 385.16 877.96 385.14
  L 875.59 384.00
  Q 875.43 383.93 875.35 384.08
  L 875.22 384.30
  Q 875.20 384.34 875.24 384.36
  Q 882.24 387.36 888.03 392.30
  Z"
/>
<path fill="#ffffff" d="
  M 663.15 390.16
  L 663.31 479.04
  A 0.99 0.99 0.0 0 1 662.55 480.00
  L 610.99 492.19
  A 0.99 0.99 0.0 0 1 609.77 491.24
  L 609.19 407.31
  A 0.99 0.99 0.0 0 1 609.86 406.36
  L 661.85 389.22
  A 0.99 0.99 0.0 0 1 663.15 390.16
  Z"
/>
<path fill="#c4e6ff" d="
  M 934.75 436.96
  Q 940.04 442.39 941.14 445.00
  C 941.38 445.57 941.28 446.40 941.65 447.11
  Q 943.11 449.92 944.80 452.54
  Q 945.59 453.76 946.02 455.01
  C 946.43 456.23 946.62 457.26 947.30 458.42
  Q 949.18 461.64 950.10 465.43
  Q 950.98 469.01 952.59 472.89
  Q 954.15 476.64 954.92 480.43
  C 956.07 486.17 957.77 492.01 958.61 497.75
  Q 961.35 516.61 959.78 535.62
  Q 958.79 547.60 956.49 558.44
  Q 955.40 563.55 953.66 569.03
  Q 953.13 570.70 952.44 572.26
  Q 951.94 573.38 951.83 574.56
  Q 951.72 575.76 951.27 576.84
  Q 949.11 582.10 946.91 587.17
  Q 946.30 588.59 945.97 590.12
  Q 945.61 591.77 944.69 593.13
  A 1.71 1.69 -26.2 0 0 944.39 593.99
  Q 944.29 595.46 943.33 596.50
  A 0.83 0.81 57.5 0 0 943.16 597.31
  L 943.29 597.67
  Q 943.45 598.12 943.21 598.54
  C 941.92 600.89 940.33 603.02 939.12 605.35
  C 937.51 608.42 935.19 610.80 933.33 613.73
  Q 929.31 620.09 923.63 625.37
  Q 915.92 632.55 907.95 640.20
  C 899.29 648.52 886.51 656.73 874.77 663.04
  C 868.01 666.67 860.03 669.38 852.49 671.66
  Q 847.16 673.28 841.39 674.15
  Q 817.97 677.68 795.44 677.62
  Q 767.94 677.54 738.87 677.73
  A 2.19 2.19 0.0 0 1 736.67 675.56
  L 736.15 604.08
  Q 762.45 604.46 791.75 603.52
  C 801.87 603.19 811.70 602.85 821.44 600.21
  Q 846.68 593.35 866.31 577.47
  Q 875.85 569.75 883.64 559.19
  Q 889.94 550.64 895.88 538.78
  C 898.98 532.57 901.13 526.18 902.92 519.50
  Q 906.79 505.08 906.47 492.77
  Q 906.19 481.77 905.65 470.46
  Q 905.05 457.86 901.68 448.00
  Q 900.43 444.36 898.27 440.00
  C 895.07 433.53 891.49 428.02 887.79 422.07
  Q 887.09 420.94 887.11 419.62
  A 0.49 0.49 0.0 0 1 887.81 419.18
  Q 895.85 422.81 903.95 427.51
  C 912.25 432.32 920.72 436.10 929.18 440.89
  Q 930.42 441.59 931.62 440.82
  Q 933.36 439.70 934.75 436.96
  Z"
/>
<path fill="#c4e6ff" d="
  M 422.48 603.46
  L 422.22 676.12
  A 0.94 0.94 0.0 0 1 421.31 677.06
  Q 415.61 677.25 410.89 677.26
  Q 335.37 677.38 258.42 677.27
  Q 241.51 677.25 227.85 675.50
  C 220.75 674.59 213.79 672.17 206.39 672.09
  Q 203.51 672.06 200.92 670.96
  Q 193.12 667.64 184.36 663.69
  Q 179.72 661.60 176.36 658.71
  Q 176.21 658.58 176.38 658.48
  Q 176.50 658.41 176.63 658.37
  Q 176.74 658.34 176.62 658.35
  Q 175.25 658.44 174.47 657.33
  Q 174.27 657.04 173.93 657.11
  Q 173.40 657.21 172.97 656.97
  Q 162.21 650.90 156.23 646.33
  Q 128.76 625.35 113.20 593.59
  Q 103.83 574.46 100.10 554.97
  Q 98.75 547.92 98.18 537.77
  C 99.61 542.27 101.52 546.00 106.78 543.08
  Q 107.23 542.83 107.30 542.31
  C 108.26 535.39 108.92 528.49 109.93 521.65
  Q 111.47 511.33 116.92 498.43
  Q 121.17 488.38 125.50 481.29
  C 129.70 474.41 134.82 467.17 138.35 459.60
  Q 139.50 457.14 141.46 455.04
  Q 146.57 449.55 151.06 444.55
  Q 152.56 442.88 153.86 442.72
  Q 155.48 442.53 155.02 444.09
  Q 151.96 454.51 150.07 463.83
  C 149.69 465.70 150.03 467.49 149.50 469.45
  Q 148.73 472.34 148.60 475.52
  Q 148.17 486.30 148.32 495.49
  Q 148.38 499.18 149.17 502.91
  Q 150.92 511.24 153.32 520.84
  Q 155.23 528.46 157.62 533.43
  C 162.76 544.13 168.02 553.53 176.23 562.27
  C 184.08 570.63 192.75 579.51 202.18 585.60
  Q 224.96 600.33 251.02 602.46
  Q 267.13 603.77 284.71 603.84
  Q 348.88 604.09 412.59 603.87
  Q 416.66 603.86 421.43 604.61
  Q 421.98 604.70 422.19 604.18
  L 422.48 603.46
  Z"
/>
<path fill="#ffffff" d="
  M 506.73 508.96
  C 499.77 508.84 492.34 509.35 485.38 508.57
  A 0.85 0.84 -75.5 0 1 484.70 507.40
  C 486.13 503.98 488.69 501.42 490.59 498.33
  Q 499.59 483.62 508.14 470.81
  Q 508.89 469.68 509.34 468.32
  A 0.71 0.71 0.0 0 1 510.64 468.22
  Q 513.11 473.15 516.03 477.72
  Q 525.56 492.62 535.94 506.56
  Q 536.77 507.68 535.45 508.14
  Q 534.45 508.49 533.37 508.51
  Q 524.38 508.75 514.72 508.66
  A 0.65 0.65 0.0 0 0 514.06 509.31
  L 513.68 567.99
  Q 513.67 569.51 512.14 569.48
  L 509.29 569.43
  A 1.71 1.71 0.0 0 1 507.61 567.73
  L 507.24 509.47
  Q 507.23 508.97 506.73 508.96
  Z"
/>
<ellipse fill="#276089" cx="0.00" cy="0.00" transform="translate(677.88,521.11) rotate(84.9)" rx="14.73" ry="13.11"/>
<path fill="#276089" d="
  M 653.38 677.42
  Q 650.42 676.85 647.69 676.02
  Q 645.11 675.22 642.31 674.66
  Q 624.02 670.98 606.74 665.66
  Q 600.80 663.83 595.31 661.75
  A 1.82 1.81 -79.8 0 1 594.14 660.05
  L 593.96 538.72
  A 0.97 0.97 0.0 0 1 594.78 537.76
  Q 625.29 532.84 654.64 528.93
  A 0.58 0.57 76.9 0 1 655.27 529.33
  C 657.76 536.87 662.10 542.05 670.08 544.24
  Q 673.94 545.30 677.91 546.11
  Q 679.12 546.36 679.12 547.60
  C 679.02 593.21 679.65 637.75 679.09 684.09
  A 0.80 0.79 -79.7 0 1 678.03 684.83
  Q 666.29 680.76 653.97 677.85
  C 653.78 677.81 653.58 677.65 653.47 677.48
  Q 653.44 677.43 653.38 677.42
  Z
  M 610.01 645.38
  C 610.01 646.98 610.77 648.42 612.26 649.06
  C 620.63 652.63 629.20 654.01 637.60 656.47
  Q 649.19 659.86 661.88 663.03
  Q 663.27 663.38 663.33 661.95
  Q 663.43 659.77 663.43 657.69
  Q 663.36 600.71 663.09 550.52
  A 1.49 1.48 1.9 0 0 661.71 549.05
  Q 658.24 548.79 654.88 548.95
  Q 640.98 549.60 624.11 551.20
  Q 617.10 551.87 609.98 552.02
  A 0.46 0.45 -1.3 0 0 609.53 552.48
  Q 609.94 600.04 610.01 645.38
  Z"
/>
<path fill="#ffffff" d="
  M 612.26 649.06
  C 610.77 648.42 610.01 646.98 610.01 645.38
  Q 609.94 600.04 609.53 552.48
  A 0.46 0.45 -1.3 0 1 609.98 552.02
  Q 617.10 551.87 624.11 551.20
  Q 640.98 549.60 654.88 548.95
  Q 658.24 548.79 661.71 549.05
  A 1.49 1.48 1.9 0 1 663.09 550.52
  Q 663.36 600.71 663.43 657.69
  Q 663.43 659.77 663.33 661.95
  Q 663.27 663.38 661.88 663.03
  Q 649.19 659.86 637.60 656.47
  C 629.20 654.01 620.63 652.63 612.26 649.06
  Z"
/>
<path fill="#c4e6ff" d="
  M 664.46 705.55
  Q 660.29 705.43 657.52 704.26
  Q 655.83 703.54 654.31 703.37
  Q 652.68 703.19 651.25 702.90
  Q 635.66 699.73 630.86 698.40
  Q 618.05 694.87 604.84 691.11
  C 600.29 689.82 595.80 687.86 591.30 687.21
  Q 588.82 686.85 585.95 686.10
  Q 584.37 685.69 582.00 685.13
  Q 580.20 684.70 578.66 683.64
  Q 578.25 683.35 577.75 683.35
  Q 573.46 683.34 572.05 680.95
  Q 576.99 682.31 584.74 683.66
  Q 588.30 684.27 599.95 686.55
  Q 607.98 688.12 614.98 690.12
  Q 624.29 692.77 633.31 695.66
  Q 637.25 696.91 641.14 698.50
  C 644.58 699.90 647.87 700.21 651.42 700.83
  Q 653.66 701.22 655.67 702.18
  Q 657.60 703.10 659.70 703.75
  Q 662.11 704.49 664.46 705.55
  Z"
/>
</svg>
